<svg id="SvgjsSvg1001" width="288" height="288" xmlns="http://www.w3.org/2000/svg" version="1.1" xmlns:xlink="http://www.w3.org/1999/xlink" xmlns:svgjs="http://svgjs.com/svgjs"><defs id="SvgjsDefs1002"></defs><g id="SvgjsG1008" transform="matrix(0.9167,0,0,0.9167,11.994841561889643,11.995322021484384)"><svg xmlns="http://www.w3.org/2000/svg" width="288" height="288" viewBox="0 0 48 48"><g transform="translate(67.83 -3128.751)" fill="#ffffff" class="color000 svgShape"><path fill="#0091ff" d="m -19.830719,3152.7512 a 24,24 0 0 0 -24,-24 24,24 0 0 0 -24,24 24,24 0 0 0 24,24 24,24 0 0 0 24,-24 z" class="colorea6153 svgShape"></path><g fill="#ffffff" transform="translate(929.42 734.516)" class="colorfff svgShape"><path fill-rule="evenodd" d="m -958.50004,2412.3583 0,0.7507 -2.25,2.7525 c -0.68673,6e-4 -1.31331,0 -2,0 l -1.5,-1.5014 -13.25,0 0,-1.0009 -1,0 0,1.2512 -1.25,1.2511 c -3.09991,-0.019 -6.15127,0.059 -9.25,0 l 0,0.9968 31.00015,0 c 0.27526,-10e-5 0.49871,-0.2223 0.49985,-0.4974 l 0,-4.0026 z m 0,2.2521 0,1.2511 c -0.30987,0 -0.69015,-1e-4 -1,0 z m -19.25,0.7506 8.75,0 0,0.5005 c -3.09249,0 -6.15855,0.018 -9.25,0 z m 9.75,0 3.25,0 0.5,0.5005 c -1.26396,0 -2.4862,7e-4 -3.75,0 z" color="#000" enable-background="accumulate" font-family="sans-serif" font-weight="400" overflow="visible" style="line-height:normal;text-indent:0;text-align:start;text-decoration-line:none;text-decoration-style:solid;text-decoration-color:#000;text-transform:none;white-space:normal;isolation:auto;mix-blend-mode:normal;solid-color:#000;solid-opacity:1" fill="#ffffff" class="color000 svgShape"></path><path fill-rule="evenodd" d="m -974.26367,1397.25 -0.28125,1.123 c -0.0563,0.2251 -0.25432,0.377 -0.48633,0.377 l -0.85156,0 -0.27149,1 1.12305,0 c 0.68575,0 1.28878,-0.4696 1.45508,-1.1348 l 0.32617,-1.3652 z" color="#000" enable-background="accumulate" font-family="sans-serif" font-weight="400" overflow="visible" transform="translate(0 1020.362)" style="line-height:normal;text-indent:0;text-align:start;text-decoration-line:none;text-decoration-style:solid;text-decoration-color:#000;text-transform:none;white-space:normal;isolation:auto;mix-blend-mode:normal;solid-color:#000;solid-opacity:1" fill="#ffffff" class="color000 svgShape"></path><path d="m -972.00004,2417.6123 c 10e-6,1.6466 0.66771,3.1372 1.74723,4.2163 0.53977,0.5394 1.18248,0.9761 1.89617,1.2777 l 1.3082,-1.8335 c -0.47551,-0.2011 -0.90372,-0.4919 -1.26334,-0.8514 -0.71925,-0.7188 -1.16413,-1.7121 -1.16413,-2.8091" fill="#ffffff" class="color000 svgShape"></path><path fill-rule="evenodd" d="M-979.48662 2417.6123l-9.51342 6.5005.0134-6.5005zM-976.25004 2417.6123l-1.5 5.5-2.5 0 1.5-5.5z" fill="#ffffff" class="color000 svgShape"></path></g></g></svg></g></svg>