<svg id="SvgjsSvg1001" width="288" height="288" xmlns="http://www.w3.org/2000/svg" version="1.1" xmlns:xlink="http://www.w3.org/1999/xlink" xmlns:svgjs="http://svgjs.com/svgjs"><defs id="SvgjsDefs1002"></defs><g id="SvgjsG1008" transform="matrix(0.9167,0,0,0.9167,12.0203771964282,11.995173596683316)"><svg xmlns="http://www.w3.org/2000/svg" viewBox="0 0 24 24" width="288" height="288"><path fill="#303c42" d="M12,0A12,12,0,0,0,5.72,22.21l0,0A12,12,0,1,0,12,0Zm4.88,20.72a3.62,3.62,0,0,1-1.73-1.82,5.1,5.1,0,0,1,.67-.05c.24,0,.34,0,.33,0a.5.5,0,0,0,.35.14h0a.5.5,0,0,0,.38-.83v0a2.4,2.4,0,0,0,.51.06,1.29,1.29,0,0,0,1-.35.5.5,0,0,0,0-.71,2.11,2.11,0,0,1-.35-1.5V15.5a1.42,1.42,0,0,1,.3-1,4.54,4.54,0,0,0,.7-3C19,8.62,16.71,3,12.5,3a2.91,2.91,0,0,0-1.67.5H10.5C7.36,3.5,5,8.35,5,11.5a4.54,4.54,0,0,0,.7,3,1.42,1.42,0,0,1,.3,1v.15a2.11,2.11,0,0,1-.35,1.5.5.5,0,0,0,0,.71,1.29,1.29,0,0,0,1,.35,2.4,2.4,0,0,0,.51-.06l-.06.13a.51.51,0,0,0,.14.64.48.48,0,0,0,.63,0,1,1,0,0,1,.36,0,5.1,5.1,0,0,1,.67.05,3.62,3.62,0,0,1-1.73,1.82,10,10,0,1,1,9.77,0Z" data-name="Female User Circle" class="color303c42 svgShape"></path></svg></g></svg>