<svg id="SvgjsSvg1012" width="288" height="288" xmlns="http://www.w3.org/2000/svg" version="1.1" xmlns:xlink="http://www.w3.org/1999/xlink" xmlns:svgjs="http://svgjs.com/svgjs"><defs id="SvgjsDefs1013"></defs><g id="SvgjsG1014" transform="matrix(0.9167,0,0,0.9167,11.995581458643073,11.994854292321207)"><svg xmlns="http://www.w3.org/2000/svg" width="288" height="288" version="1" viewBox="0 0 32 32"><g transform="translate(.27 .747)" fill="#000000" class="color000 svgShape"><path fill="#e2e806" d="m 31.730508,15.252542 c 0,8.835821 -7.164179,16 -16,16 -8.8358204,0 -15.99999949,-7.164179 -15.99999949,-16 0,-8.8358205 7.16417909,-15.99999959 15.99999949,-15.99999959 8.835821,0 16,7.16417909 16,15.99999959 l 0,0 z" class="color3a6c87 svgShape"></path><path fill="#ffffff" d="m 14.794332,5.2525422 c -0.170213,0 -0.340426,0.1702128 -0.340426,0.3404255 v 4.8510643 l -1.531915,2.297872 c -0.0851,0.0851 -0.0851,0.0851 -0.0851,0.170213 v 11.063829 c 0,0.340426 0.170213,0.595745 0.340426,0.851064 0.255319,0.255319 0.510638,0.425532 0.851064,0.425532 h 3.659573 c 0.170213,0 0.340426,-0.0851 0.510639,-0.170213 0.0851,-0.0851 0.170213,-0.255319 0.255319,-0.340425 0.0851,-0.25532 0.170213,-0.510639 0.170213,-0.765958 V 12.912117 12.741904 L 17.262416,10.444032 V 5.5929677 c 0,-0.1702127 -0.170212,-0.3404255 -0.340425,-0.3404255 h -2.127659 l 0,0 0,0 0,0 z m 0.851064,6.8936168 c 0.255318,-0.0851 0.510637,0.25532 0.340424,0.510639 l -0.851062,1.191489 v 9.446808 c 0,0.170213 -0.170213,0.340425 -0.340426,0.340425 -0.170213,0 -0.340426,-0.170212 -0.340426,-0.340425 v -9.531914 c 0,-0.0851 0,-0.170213 0.08511,-0.170213 l 0.93617,-1.276596 c 0.0851,-0.0851 0.0851,-0.170213 0.170213,-0.170213 l 0,0 0,0 z" class="colorfff svgShape"></path></g></svg></g></svg>