<svg id="SvgjsSvg1017" width="288" height="288" xmlns="http://www.w3.org/2000/svg" version="1.1" xmlns:xlink="http://www.w3.org/1999/xlink" xmlns:svgjs="http://svgjs.com/svgjs"><defs id="SvgjsDefs1018"></defs><g id="SvgjsG1019" transform="matrix(0.9167,0,0,0.9167,11.995426116284364,11.995572437349239)"><svg xmlns="http://www.w3.org/2000/svg" width="288" height="288" viewBox="0 0 56 56"><g transform="matrix(3.77953 0 0 3.77953 332.676 -3589.119)" fill="#ffffff" class="color000 svgShape"><circle cx="-80.612" cy="957.029" r="7.408" fill="#f80000" class="colorea6153 svgShape"></circle><g fill="#cb3b3b" transform="matrix(.26458 0 0 .26458 -84.846 682.825)" class="colorfff svgShape"><path d="m 16,1034.2274 c -2.521209,0 -4.55467,2.0317 -4.55467,4.5528 0,2.5212 2.033461,4.5547 4.55467,4.5547 2.521209,0 4.554708,-2.0335 4.55467,-4.5547 0,-2.5211 -2.033461,-4.5528 -4.55467,-4.5528 z m -1.011704,1.5215 2.023408,0 0,2.0215 2.02148,0 0,2.0215 -2.02148,0 0,2.0215 -2.023408,0 0,-2.0215 -2.021518,0 0,-2.0215 2.021518,0 z" color="#000" enable-background="accumulate" font-family="sans-serif" font-weight="400" overflow="visible" style="line-height:normal;text-indent:0;text-align:start;text-decoration-line:none;text-decoration-style:solid;text-decoration-color:#000;text-transform:none;block-progression:tb;white-space:normal;isolation:auto;mix-blend-mode:normal;solid-color:#000;solid-opacity:1" fill="#ffffff" class="color000 svgShape"></path><path fill-rule="evenodd" d="m 13.332013,1026.3622 c -0.996662,0 -1.832013,0.7941 -1.832013,1.7832 l 0,1.2168 0.999988,0 0,-1.2168 c 0,-0.4329 0.35074,-0.7824 0.83399,-0.7832 l 5.332006,0 c 0.48257,0 0.83399,0.35 0.83399,0.7832 l 0,1.2168 1.000026,0 0,-1.2168 c 0,-0.9893 -0.836561,-1.7832 -1.834016,-1.7832 l -5.332006,0 -0.002,0 z" color="#000" enable-background="accumulate" font-family="sans-serif" font-weight="400" overflow="visible" style="line-height:normal;text-indent:0;text-align:start;text-decoration-line:none;text-decoration-style:solid;text-decoration-color:#000;text-transform:none;block-progression:tb;white-space:normal;isolation:auto;mix-blend-mode:normal;solid-color:#000;solid-opacity:1" fill="#ffffff" class="color000 svgShape"></path><path style="line-height:normal;text-indent:0;text-align:start;text-decoration-line:none;text-decoration-style:solid;text-decoration-color:#000;text-transform:none;block-progression:tb;white-space:normal;isolation:auto;mix-blend-mode:normal;solid-color:#000;solid-opacity:1" d="m 6.9023381,1030.1885 c -1.408781,0 -2.5273322,1.1185 -2.5273322,2.5272 l 0,11.1192 c 0,1.4088 1.1185511,2.5273 2.527332,2.5273 l 18.1953241,0 c 1.408781,0 2.527332,-1.1185 2.527332,-2.5273 l 0,-11.1192 c 0,-1.4087 -1.118551,-2.5272 -2.527332,-2.5272 z M 16,1033.2275 c 3.061644,0 5.554696,2.4912 5.554696,5.5527 0,3.0617 -2.493052,5.5566 -5.554696,5.5566 -3.061644,0 -5.554695,-2.4949 -5.554695,-5.5566 0,-3.0615 2.493051,-5.5527 5.554695,-5.5527 z" color="#000" enable-background="accumulate" font-family="sans-serif" font-weight="400" overflow="visible" fill="#ffffff" class="color000 svgShape"></path></g></g></svg></g></svg>