<svg id="SvgjsSvg1011" width="288" height="288" xmlns="http://www.w3.org/2000/svg" version="1.1" xmlns:xlink="http://www.w3.org/1999/xlink" xmlns:svgjs="http://svgjs.com/svgjs"><defs id="SvgjsDefs1012"></defs><g id="SvgjsG1013" transform="matrix(0.9167,0,0,0.9167,11.995200000000011,11.995200000000011)"><svg xmlns="http://www.w3.org/2000/svg" viewBox="0 0 24 24" width="288" height="288"><path fill="#303c42" d="M12,0A12,12,0,1,0,24,12,12,12,0,0,0,12,0Zm5.41,20.39a3.52,3.52,0,0,1-.76-.81l-.24-.36A.5.5,0,0,0,16,19h-.61l-.34-1.36a6.44,6.44,0,0,0,1.41-2.8c.92-.68,1-3.31,1-3.34A2.14,2.14,0,0,0,17,10.06a4.36,4.36,0,0,0,.5-1.85l.36-.36A.5.5,0,0,0,18,7.5C18,5.34,15.9,3,12.5,3A4.52,4.52,0,0,0,9.26,4,3.27,3.27,0,0,0,7,7v.48A13.71,13.71,0,0,0,7.11,10,2,2,0,0,0,6.5,11.5s.12,2.66,1,3.34a6.44,6.44,0,0,0,1.41,2.8L8.61,19H8a.5.5,0,0,0-.42.22l-.24.36a3.52,3.52,0,0,1-.76.81,10,10,0,1,1,10.83,0Z" data-name="Male User Circle" class="color303c42 svgShape"></path></svg></g></svg>