<svg id="SvgjsSvg1016" width="288" height="288" xmlns="http://www.w3.org/2000/svg" version="1.1" xmlns:xlink="http://www.w3.org/1999/xlink" xmlns:svgjs="http://svgjs.com/svgjs"><defs id="SvgjsDefs1017"></defs><g id="SvgjsG1018" transform="matrix(0.9167,0,0,0.9167,11.995179962083341,11.952769558510198)"><svg xmlns="http://www.w3.org/2000/svg" viewBox="0 0 24 24" width="288" height="288"><g data-name="User Circle" fill="#000000" class="color000 svgShape"><circle cx="12" cy="9.5" r="5.5" fill="#303c42" class="color303c42 svgShape"></circle><path fill="#303c42" d="M21.39,19.45A12,12,0,1,0,0,12a11.93,11.93,0,0,0,2.61,7.44l0,0a12,12,0,0,0,18.73,0ZM12,2a10,10,0,0,1,8,16,18.83,18.83,0,0,0-8-2,18.83,18.83,0,0,0-8,2A10,10,0,0,1,12,2Z" class="color303c42 svgShape"></path></g></svg></g></svg>